<?xml version="1.0" encoding="iso-8859-1"?>
<!-- Generator: Adobe Illustrator 19.0.0, SVG Export Plug-In . SVG Version: 6.00 Build 0)  -->
<svg xmlns="http://www.w3.org/2000/svg" xmlns:xlink="http://www.w3.org/1999/xlink" version="1.1" id="main" x="0px" y="0px" viewBox="0 0 512 512" style="enable-background:new 0 0 512 512;" xml:space="preserve" width="512px" height="512px">
	<g>
		<g>
			<g>
				<path d="M337.900,222.891v0.001c13.214,0,25.815,2.676,37.291,7.511V81.14C375.196,36.399,338.796,0,294.055,0h-76.11     c-44.741,0-81.141,36.399-81.141,81.14v149.262c11.477-4.835,24.077-7.511,37.291-7.511H337.903z" fill="#949494"/>
				<path d="M337.900,256.284H174.097c-34.724,0-62.974,28.25-62.974,62.974v72.474h25.681V512h33.391V391.731h171.609V512h33.391     V391.731h25.681v-72.474h0C400.877,284.534,372.627,256.284,337.903,256.284z" fill="#949494"/>
			</g>
		</g>
	</g>
	<g></g>
	<g></g>
	<g></g>
	<g></g>
	<g></g>
	<g></g>
	<g></g>
	<g></g>
	<g></g>
	<g></g>
	<g></g>
	<g></g>
	<g></g>
	<g></g>
	<g></g>
</svg>
