<?xml version="1.0" encoding="utf-8"?>
<!-- Generator: Adobe Illustrator 16.0.3, SVG Export Plug-In . SVG Version: 6.00 Build 0)  -->
<!DOCTYPE svg PUBLIC "-//W3C//DTD SVG 1.1//EN" "http://www.w3.org/Graphics/SVG/1.1/DTD/svg11.dtd">
<svg version="1.1" id="Ebene_1" xmlns="http://www.w3.org/2000/svg" xmlns:xlink="http://www.w3.org/1999/xlink" x="0px" y="0px"
	 width="56.693px" height="56.693px" viewBox="0 0 56.693 56.693" enable-background="new 0 0 56.693 56.693" xml:space="preserve">
<g>
	<path fill="#777777" d="M18.061,6.672c0,1.208-0.979,2.188-2.188,2.188l0,0c-1.208,0-2.188-0.979-2.188-2.188V2.188
		C13.684,0.98,14.664,0,15.873,0l0,0c1.208,0,2.188,0.979,2.188,2.188V6.672z"/>
	<path fill="#777777" d="M43.008,6.672c0,1.208-0.979,2.188-2.188,2.188l0,0c-1.208,0-2.188-0.979-2.188-2.188V2.188
		C38.632,0.98,39.611,0,40.82,0l0,0c1.208,0,2.188,0.979,2.188,2.188V6.672z"/>
</g>
<g>
	<path fill="#777777" d="M18.061,6.672c0,1.208-0.979,2.188-2.188,2.188l0,0c-1.208,0-2.188-0.979-2.188-2.188V2.188
		C13.684,0.98,14.664,0,15.873,0l0,0c1.208,0,2.188,0.979,2.188,2.188V6.672z"/>
	<path fill="#777777" d="M53.858,5.67h-8.016v1.002c0,2.77-2.253,5.022-5.021,5.022c-2.77,0-5.022-2.253-5.022-5.022V5.67H20.895
		v1.002c0,2.77-2.254,5.022-5.022,5.022S10.85,9.441,10.85,6.672V5.67H2.834C1.268,5.67,0,6.939,0,8.504v45.355
		c0,1.564,1.269,2.834,2.834,2.834h51.024c1.564,0,2.835-1.27,2.835-2.834V8.504C56.693,6.939,55.424,5.67,53.858,5.67z
		 M52.441,48.756c0,1.252-1.017,2.269-2.27,2.269H6.518c-1.252,0-2.268-1.017-2.268-2.269v-29.48c0-1.252,1.015-2.269,2.268-2.269
		h43.653c1.253,0,2.27,1.016,2.27,2.269V48.756z"/>
	<path fill="#777777" d="M43.008,6.672c0,1.208-0.979,2.188-2.188,2.188l0,0c-1.208,0-2.188-0.979-2.188-2.188V2.188
		C38.632,0.98,39.611,0,40.82,0l0,0c1.208,0,2.188,0.979,2.188,2.188V6.672z"/>
</g>
<g opacity="0.3">
	<rect x="24.418" y="20.693" fill="#777777" width="7.851" height="27.1"/>
	<rect x="37.176" y="20.693" fill="#777777" width="7.853" height="27.1"/>
	<rect x="11.664" y="20.693" fill="#777777" width="7.849" height="27.1"/>
</g>
</svg>

