<?xml version="1.0" encoding="iso-8859-1"?>
<!-- Generator: Adobe Illustrator 18.0.0, SVG Export Plug-In . SVG Version: 6.00 Build 0)  -->
<!DOCTYPE svg PUBLIC "-//W3C//DTD SVG 1.1//EN" "http://www.w3.org/Graphics/SVG/1.1/DTD/svg11.dtd">
<svg version="1.1" xmlns="http://www.w3.org/2000/svg" xmlns:xlink="http://www.w3.org/1999/xlink" x="0px" y="0px"
	 viewBox="0 0 48 48" style="enable-background:new 0 0 48 48;" xml:space="preserve">
<g id="Layer_559">
	<g>
		<circle style="fill:#E14E42;" cx="24" cy="24" r="24"/>
		<g>
			<path style="fill:#FFFFFF;" d="M32.023,29.19c-0.24,0-0.414,0.071-0.518,0.215c-0.107,0.137-0.158,0.37-0.158,0.696v0.785h1.342
				V30.1c0-0.325-0.055-0.559-0.16-0.696C32.428,29.261,32.256,29.19,32.023,29.19z"/>
			<g>
				<path style="fill:#FFFFFF;" d="M26.791,29.164c-0.108,0-0.217,0.024-0.322,0.075c-0.105,0.05-0.209,0.131-0.312,0.238v4.836
					c0.123,0.125,0.242,0.221,0.359,0.277c0.117,0.053,0.238,0.083,0.367,0.083c0.185,0,0.322-0.055,0.41-0.166
					c0.086-0.11,0.131-0.287,0.131-0.535v-4.008c0-0.264-0.053-0.461-0.158-0.597C27.154,29.232,26.996,29.164,26.791,29.164z"/>
				<g>
					<path style="fill:#FFFFFF;" d="M33.52,23H14.481C11.453,23,9,25.8,9,28.894v4.503C9,36.491,11.453,39,14.481,39H33.52
						c3.027,0,5.48-2.509,5.48-5.603v-4.503C39,25.8,36.547,23,33.52,23z M18.481,26.796h-1.769v8.992H15v-8.992h-1.767v-1.53h5.248
						V26.796z M23.481,35.787h-1.518v-0.851c-0.281,0.314-0.57,0.555-0.875,0.717c-0.303,0.169-0.596,0.249-0.883,0.249
						c-0.351,0-0.613-0.115-0.791-0.347c-0.176-0.232-0.268-0.575-0.268-1.04v-6.49h1.518v5.955c0,0.184,0.033,0.316,0.094,0.397
						c0.066,0.085,0.17,0.124,0.312,0.124c0.109,0,0.252-0.054,0.424-0.163c0.17-0.11,0.328-0.249,0.469-0.417v-5.897h1.518V35.787z
						 M28.988,34.185c0,0.548-0.119,0.97-0.357,1.264c-0.236,0.294-0.582,0.438-1.031,0.438c-0.299,0-0.562-0.055-0.795-0.169
						c-0.23-0.112-0.449-0.286-0.648-0.525v0.594h-1.533V25.266h1.533v3.389c0.207-0.236,0.424-0.416,0.65-0.538
						c0.232-0.126,0.465-0.186,0.701-0.186c0.48,0,0.848,0.164,1.1,0.495c0.254,0.331,0.381,0.815,0.381,1.451V34.185z
						 M34.25,32.093h-2.902v1.463c0,0.408,0.049,0.692,0.148,0.851c0.1,0.159,0.271,0.236,0.516,0.236
						c0.252,0,0.426-0.067,0.527-0.201c0.098-0.136,0.15-0.429,0.15-0.886v-0.353h1.56v0.398c0,0.796-0.188,1.395-0.572,1.799
						c-0.377,0.4-0.945,0.6-1.701,0.6c-0.682,0-1.219-0.213-1.607-0.64c-0.389-0.423-0.586-1.011-0.586-1.759v-3.487
						c0-0.671,0.215-1.223,0.646-1.646c0.428-0.423,0.979-0.635,1.66-0.635c0.695,0,1.228,0.197,1.602,0.589
						c0.373,0.393,0.558,0.957,0.558,1.692V32.093z"/>
					<polygon style="fill:#FFFFFF;" points="14.684,9 16.973,16.001 16.973,20.592 18.897,20.592 18.897,15.783 21.137,9 19.18,9 
						17.99,13.635 17.869,13.635 16.619,9 					"/>
					<path style="fill:#FFFFFF;" d="M21.963,12.414c-0.457,0.392-0.687,0.918-0.687,1.583v4.432c0,0.727,0.225,1.303,0.67,1.734
						c0.451,0.429,1.049,0.646,1.797,0.646c0.775,0,1.385-0.209,1.83-0.625c0.439-0.418,0.662-0.989,0.662-1.721v-4.417
						c0-0.651-0.226-1.187-0.676-1.6c-0.453-0.412-1.031-0.62-1.74-0.62C23.043,11.826,22.424,12.022,21.963,12.414z M24.494,13.931
						v4.66c0,0.229-0.07,0.409-0.205,0.541c-0.137,0.131-0.322,0.196-0.553,0.196c-0.227,0-0.4-0.062-0.521-0.194
						c-0.121-0.129-0.182-0.309-0.182-0.543v-4.66c0-0.186,0.066-0.335,0.193-0.453c0.133-0.115,0.301-0.171,0.51-0.171
						c0.226,0,0.408,0.056,0.547,0.171C24.424,13.596,24.494,13.745,24.494,13.931z"/>
					<path style="fill:#FFFFFF;" d="M32.496,20.592v-8.55h-1.709v6.491c-0.158,0.186-0.334,0.338-0.525,0.46
						c-0.195,0.12-0.353,0.18-0.478,0.18c-0.16,0-0.277-0.045-0.348-0.138c-0.07-0.09-0.109-0.236-0.109-0.437v-6.555h-1.707v7.147
						c0,0.51,0.102,0.891,0.301,1.143c0.201,0.256,0.496,0.385,0.892,0.385c0.322,0,0.65-0.093,0.99-0.274
						c0.344-0.183,0.672-0.449,0.984-0.798v0.946H32.496z"/>
				</g>
			</g>
		</g>
		<circle style="fill:#E14E42;" cx="24" cy="24" r="24"/>
		<g>
			<path style="fill:#FFFFFF;" d="M32.023,29.19c-0.24,0-0.414,0.071-0.518,0.215c-0.107,0.137-0.158,0.37-0.158,0.696v0.785h1.342
				V30.1c0-0.325-0.055-0.559-0.16-0.696C32.428,29.261,32.256,29.19,32.023,29.19z"/>
			<g>
				<path style="fill:#FFFFFF;" d="M26.791,29.164c-0.108,0-0.217,0.024-0.322,0.075c-0.105,0.05-0.209,0.131-0.312,0.238v4.836
					c0.123,0.125,0.242,0.221,0.359,0.277c0.117,0.053,0.238,0.083,0.367,0.083c0.185,0,0.322-0.055,0.41-0.166
					c0.086-0.11,0.131-0.287,0.131-0.535v-4.008c0-0.264-0.053-0.461-0.158-0.597C27.154,29.232,26.996,29.164,26.791,29.164z"/>
				<g>
					<path style="fill:#FFFFFF;" d="M33.52,23H14.481C11.453,23,9,25.8,9,28.894v4.503C9,36.491,11.453,39,14.481,39H33.52
						c3.027,0,5.48-2.509,5.48-5.603v-4.503C39,25.8,36.547,23,33.52,23z M18.481,26.796h-1.769v8.992H15v-8.992h-1.767v-1.53h5.248
						V26.796z M23.481,35.787h-1.518v-0.851c-0.281,0.314-0.57,0.555-0.875,0.717c-0.303,0.169-0.596,0.249-0.883,0.249
						c-0.351,0-0.613-0.115-0.791-0.347c-0.176-0.232-0.268-0.575-0.268-1.04v-6.49h1.518v5.955c0,0.184,0.033,0.316,0.094,0.397
						c0.066,0.085,0.17,0.124,0.312,0.124c0.109,0,0.252-0.054,0.424-0.163c0.17-0.11,0.328-0.249,0.469-0.417v-5.897h1.518V35.787z
						 M28.988,34.185c0,0.548-0.119,0.97-0.357,1.264c-0.236,0.294-0.582,0.438-1.031,0.438c-0.299,0-0.562-0.055-0.795-0.169
						c-0.23-0.112-0.449-0.286-0.648-0.525v0.594h-1.533V25.266h1.533v3.389c0.207-0.236,0.424-0.416,0.65-0.538
						c0.232-0.126,0.465-0.186,0.701-0.186c0.48,0,0.848,0.164,1.1,0.495c0.254,0.331,0.381,0.815,0.381,1.451V34.185z
						 M34.25,32.093h-2.902v1.463c0,0.408,0.049,0.692,0.148,0.851c0.1,0.159,0.271,0.236,0.516,0.236
						c0.252,0,0.426-0.067,0.527-0.201c0.098-0.136,0.15-0.429,0.15-0.886v-0.353h1.56v0.398c0,0.796-0.188,1.395-0.572,1.799
						c-0.377,0.4-0.945,0.6-1.701,0.6c-0.682,0-1.219-0.213-1.607-0.64c-0.389-0.423-0.586-1.011-0.586-1.759v-3.487
						c0-0.671,0.215-1.223,0.646-1.646c0.428-0.423,0.979-0.635,1.66-0.635c0.695,0,1.228,0.197,1.602,0.589
						c0.373,0.393,0.558,0.957,0.558,1.692V32.093z"/>
					<polygon style="fill:#FFFFFF;" points="14.684,9 16.973,16.001 16.973,20.592 18.897,20.592 18.897,15.783 21.137,9 19.18,9 
						17.99,13.635 17.869,13.635 16.619,9 					"/>
					<path style="fill:#FFFFFF;" d="M21.963,12.414c-0.457,0.392-0.687,0.918-0.687,1.583v4.432c0,0.727,0.225,1.303,0.67,1.734
						c0.451,0.429,1.049,0.646,1.797,0.646c0.775,0,1.385-0.209,1.83-0.625c0.439-0.418,0.662-0.989,0.662-1.721v-4.417
						c0-0.651-0.226-1.187-0.676-1.6c-0.453-0.412-1.031-0.62-1.74-0.62C23.043,11.826,22.424,12.022,21.963,12.414z M24.494,13.931
						v4.66c0,0.229-0.07,0.409-0.205,0.541c-0.137,0.131-0.322,0.196-0.553,0.196c-0.227,0-0.4-0.062-0.521-0.194
						c-0.121-0.129-0.182-0.309-0.182-0.543v-4.66c0-0.186,0.066-0.335,0.193-0.453c0.133-0.115,0.301-0.171,0.51-0.171
						c0.226,0,0.408,0.056,0.547,0.171C24.424,13.596,24.494,13.745,24.494,13.931z"/>
					<path style="fill:#FFFFFF;" d="M32.496,20.592v-8.55h-1.709v6.491c-0.158,0.186-0.334,0.338-0.525,0.46
						c-0.195,0.12-0.353,0.18-0.478,0.18c-0.16,0-0.277-0.045-0.348-0.138c-0.07-0.09-0.109-0.236-0.109-0.437v-6.555h-1.707v7.147
						c0,0.51,0.102,0.891,0.301,1.143c0.201,0.256,0.496,0.385,0.892,0.385c0.322,0,0.65-0.093,0.99-0.274
						c0.344-0.183,0.672-0.449,0.984-0.798v0.946H32.496z"/>
				</g>
			</g>
		</g>
		<circle style="fill:#E14E42;" cx="24" cy="24" r="24"/>
		<g>
			<path style="fill:#FFFFFF;" d="M32.023,29.19c-0.24,0-0.414,0.071-0.518,0.215c-0.107,0.137-0.158,0.37-0.158,0.696v0.785h1.342
				V30.1c0-0.325-0.055-0.559-0.16-0.696C32.428,29.261,32.256,29.19,32.023,29.19z"/>
			<g>
				<path style="fill:#FFFFFF;" d="M26.791,29.164c-0.108,0-0.217,0.024-0.322,0.075c-0.105,0.05-0.209,0.131-0.312,0.238v4.836
					c0.123,0.125,0.242,0.221,0.359,0.277c0.117,0.053,0.238,0.083,0.367,0.083c0.185,0,0.322-0.055,0.41-0.166
					c0.086-0.11,0.131-0.287,0.131-0.535v-4.008c0-0.264-0.053-0.461-0.158-0.597C27.154,29.232,26.996,29.164,26.791,29.164z"/>
				<g>
					<path style="fill:#FFFFFF;" d="M33.52,23H14.481C11.453,23,9,25.8,9,28.894v4.503C9,36.491,11.453,39,14.481,39H33.52
						c3.027,0,5.48-2.509,5.48-5.603v-4.503C39,25.8,36.547,23,33.52,23z M18.481,26.796h-1.769v8.992H15v-8.992h-1.767v-1.53h5.248
						V26.796z M23.481,35.787h-1.518v-0.851c-0.281,0.314-0.57,0.555-0.875,0.717c-0.303,0.169-0.596,0.249-0.883,0.249
						c-0.351,0-0.613-0.115-0.791-0.347c-0.176-0.232-0.268-0.575-0.268-1.04v-6.49h1.518v5.955c0,0.184,0.033,0.316,0.094,0.397
						c0.066,0.085,0.17,0.124,0.312,0.124c0.109,0,0.252-0.054,0.424-0.163c0.17-0.11,0.328-0.249,0.469-0.417v-5.897h1.518V35.787z
						 M28.988,34.185c0,0.548-0.119,0.97-0.357,1.264c-0.236,0.294-0.582,0.438-1.031,0.438c-0.299,0-0.562-0.055-0.795-0.169
						c-0.23-0.112-0.449-0.286-0.648-0.525v0.594h-1.533V25.266h1.533v3.389c0.207-0.236,0.424-0.416,0.65-0.538
						c0.232-0.126,0.465-0.186,0.701-0.186c0.48,0,0.848,0.164,1.1,0.495c0.254,0.331,0.381,0.815,0.381,1.451V34.185z
						 M34.25,32.093h-2.902v1.463c0,0.408,0.049,0.692,0.148,0.851c0.1,0.159,0.271,0.236,0.516,0.236
						c0.252,0,0.426-0.067,0.527-0.201c0.098-0.136,0.15-0.429,0.15-0.886v-0.353h1.56v0.398c0,0.796-0.188,1.395-0.572,1.799
						c-0.377,0.4-0.945,0.6-1.701,0.6c-0.682,0-1.219-0.213-1.607-0.64c-0.389-0.423-0.586-1.011-0.586-1.759v-3.487
						c0-0.671,0.215-1.223,0.646-1.646c0.428-0.423,0.979-0.635,1.66-0.635c0.695,0,1.228,0.197,1.602,0.589
						c0.373,0.393,0.558,0.957,0.558,1.692V32.093z"/>
					<polygon style="fill:#FFFFFF;" points="14.684,9 16.973,16.001 16.973,20.592 18.897,20.592 18.897,15.783 21.137,9 19.18,9 
						17.99,13.635 17.869,13.635 16.619,9 					"/>
					<path style="fill:#FFFFFF;" d="M21.963,12.414c-0.457,0.392-0.687,0.918-0.687,1.583v4.432c0,0.727,0.225,1.303,0.67,1.734
						c0.451,0.429,1.049,0.646,1.797,0.646c0.775,0,1.385-0.209,1.83-0.625c0.439-0.418,0.662-0.989,0.662-1.721v-4.417
						c0-0.651-0.226-1.187-0.676-1.6c-0.453-0.412-1.031-0.62-1.74-0.62C23.043,11.826,22.424,12.022,21.963,12.414z M24.494,13.931
						v4.66c0,0.229-0.07,0.409-0.205,0.541c-0.137,0.131-0.322,0.196-0.553,0.196c-0.227,0-0.4-0.062-0.521-0.194
						c-0.121-0.129-0.182-0.309-0.182-0.543v-4.66c0-0.186,0.066-0.335,0.193-0.453c0.133-0.115,0.301-0.171,0.51-0.171
						c0.226,0,0.408,0.056,0.547,0.171C24.424,13.596,24.494,13.745,24.494,13.931z"/>
					<path style="fill:#FFFFFF;" d="M32.496,20.592v-8.55h-1.709v6.491c-0.158,0.186-0.334,0.338-0.525,0.46
						c-0.195,0.12-0.353,0.18-0.478,0.18c-0.16,0-0.277-0.045-0.348-0.138c-0.07-0.09-0.109-0.236-0.109-0.437v-6.555h-1.707v7.147
						c0,0.51,0.102,0.891,0.301,1.143c0.201,0.256,0.496,0.385,0.892,0.385c0.322,0,0.65-0.093,0.99-0.274
						c0.344-0.183,0.672-0.449,0.984-0.798v0.946H32.496z"/>
				</g>
			</g>
		</g>
	</g>
</g>
<g id="Layer_1">
</g>
</svg>
