<?xml version="1.0" encoding="iso-8859-1"?>
<!-- Generator: Adobe Illustrator 18.0.0, SVG Export Plug-In . SVG Version: 6.00 Build 0)  -->
<!DOCTYPE svg PUBLIC "-//W3C//DTD SVG 1.1//EN" "http://www.w3.org/Graphics/SVG/1.1/DTD/svg11.dtd">
<svg version="1.1" xmlns="http://www.w3.org/2000/svg" xmlns:xlink="http://www.w3.org/1999/xlink" x="0px" y="0px"
	 viewBox="0 0 48 48" style="enable-background:new 0 0 48 48;" xml:space="preserve">
<g id="Layer_552">
	<g>
		<circle style="fill:#F63D27;" cx="24" cy="24" r="24"/>
		<g>
			<path style="fill:#FFFFFF;" d="M31.937,29.166h1.289c0.346,0,0.625-0.28,0.625-0.626v-4.532h4.523
				c0.344,0,0.625-0.282,0.625-0.628v-1.29c0-0.346-0.281-0.628-0.625-0.628h-4.523V16.93c0-0.344-0.279-0.626-0.625-0.626h-1.289
				c-0.346,0-0.627,0.282-0.627,0.626v4.532h-4.523c-0.344,0-0.625,0.282-0.625,0.628v1.29c0,0.346,0.281,0.628,0.625,0.628h4.523
				v4.532C31.311,28.886,31.592,29.166,31.937,29.166z"/>
			<path style="fill:#FFFFFF;" d="M14.119,37.06c1.144,0.292,2.375,0.44,3.652,0.44c1.148,0,2.242-0.151,3.254-0.444
				c3.154-0.916,5.193-3.242,5.193-5.929c0-2.577-0.826-4.119-3.045-5.692c-0.951-0.675-1.817-1.663-1.832-1.969
				c0-0.554,0.049-0.818,1.289-1.787c1.603-1.256,2.486-2.91,2.486-4.657c0-1.583-0.482-2.99-1.307-3.978h0.639
				c0.133,0,0.262-0.041,0.367-0.117l1.779-1.291c0.221-0.159,0.314-0.442,0.229-0.701C26.74,10.676,26.5,10.5,26.228,10.5h-7.957
				c-0.871,0-1.756,0.153-2.623,0.452c-2.9,1.002-4.928,3.477-4.928,6.021c0,3.599,2.783,6.328,6.506,6.414
				c-0.072,0.286-0.109,0.567-0.109,0.843c0,0.554,0.141,1.08,0.43,1.587c-0.035,0.002-0.066,0.002-0.104,0.002
				c-3.547,0-6.75,1.744-7.965,4.34C9.16,30.833,9,31.516,9,32.189c0,0.656,0.168,1.286,0.496,1.879
				C10.262,35.437,11.902,36.5,14.119,37.06z M14.828,16.875c-0.172-1.319,0.103-2.503,0.76-3.252c0.424-0.485,0.978-0.74,1.6-0.74
				l0.072,0.002c1.758,0.051,3.439,2.014,3.75,4.375c0.174,1.323-0.119,2.565-0.783,3.325c-0.424,0.485-0.971,0.74-1.619,0.74
				c0,0,0,0-0.002,0h-0.027C16.856,21.274,15.137,19.233,14.828,16.875z M18.209,27.814l0.072,0.002
				c0.59,0.006,1.164,0.094,1.707,0.26c0.186,0.127,0.365,0.25,0.539,0.368c1.254,0.857,2.082,1.423,2.314,2.331
				c0.053,0.227,0.08,0.456,0.08,0.677c0,2.334-1.738,3.518-5.166,3.518c-2.6,0-4.633-1.597-4.633-3.636
				C13.123,29.459,15.5,27.814,18.209,27.814z"/>
		</g>
		<circle style="fill:#F63D27;" cx="24" cy="24" r="24"/>
		<g>
			<path style="fill:#FFFFFF;" d="M31.937,29.166h1.289c0.346,0,0.625-0.28,0.625-0.626v-4.532h4.523
				c0.344,0,0.625-0.282,0.625-0.628v-1.29c0-0.346-0.281-0.628-0.625-0.628h-4.523V16.93c0-0.344-0.279-0.626-0.625-0.626h-1.289
				c-0.346,0-0.627,0.282-0.627,0.626v4.532h-4.523c-0.344,0-0.625,0.282-0.625,0.628v1.29c0,0.346,0.281,0.628,0.625,0.628h4.523
				v4.532C31.311,28.886,31.592,29.166,31.937,29.166z"/>
			<path style="fill:#FFFFFF;" d="M14.119,37.06c1.144,0.292,2.375,0.44,3.652,0.44c1.148,0,2.242-0.151,3.254-0.444
				c3.154-0.916,5.193-3.242,5.193-5.929c0-2.577-0.826-4.119-3.045-5.692c-0.951-0.675-1.817-1.663-1.832-1.969
				c0-0.554,0.049-0.818,1.289-1.787c1.603-1.256,2.486-2.91,2.486-4.657c0-1.583-0.482-2.99-1.307-3.978h0.639
				c0.133,0,0.262-0.041,0.367-0.117l1.779-1.291c0.221-0.159,0.314-0.442,0.229-0.701C26.74,10.676,26.5,10.5,26.228,10.5h-7.957
				c-0.871,0-1.756,0.153-2.623,0.452c-2.9,1.002-4.928,3.477-4.928,6.021c0,3.599,2.783,6.328,6.506,6.414
				c-0.072,0.286-0.109,0.567-0.109,0.843c0,0.554,0.141,1.08,0.43,1.587c-0.035,0.002-0.066,0.002-0.104,0.002
				c-3.547,0-6.75,1.744-7.965,4.34C9.16,30.833,9,31.516,9,32.189c0,0.656,0.168,1.286,0.496,1.879
				C10.262,35.437,11.902,36.5,14.119,37.06z M14.828,16.875c-0.172-1.319,0.103-2.503,0.76-3.252c0.424-0.485,0.978-0.74,1.6-0.74
				l0.072,0.002c1.758,0.051,3.439,2.014,3.75,4.375c0.174,1.323-0.119,2.565-0.783,3.325c-0.424,0.485-0.971,0.74-1.619,0.74
				c0,0,0,0-0.002,0h-0.027C16.856,21.274,15.137,19.233,14.828,16.875z M18.209,27.814l0.072,0.002
				c0.59,0.006,1.164,0.094,1.707,0.26c0.186,0.127,0.365,0.25,0.539,0.368c1.254,0.857,2.082,1.423,2.314,2.331
				c0.053,0.227,0.08,0.456,0.08,0.677c0,2.334-1.738,3.518-5.166,3.518c-2.6,0-4.633-1.597-4.633-3.636
				C13.123,29.459,15.5,27.814,18.209,27.814z"/>
		</g>
		<circle style="fill:#F63D27;" cx="24" cy="24" r="24"/>
		<g>
			<path style="fill:#FFFFFF;" d="M31.937,29.166h1.289c0.346,0,0.625-0.28,0.625-0.626v-4.532h4.523
				c0.344,0,0.625-0.282,0.625-0.628v-1.29c0-0.346-0.281-0.628-0.625-0.628h-4.523V16.93c0-0.344-0.279-0.626-0.625-0.626h-1.289
				c-0.346,0-0.627,0.282-0.627,0.626v4.532h-4.523c-0.344,0-0.625,0.282-0.625,0.628v1.29c0,0.346,0.281,0.628,0.625,0.628h4.523
				v4.532C31.311,28.886,31.592,29.166,31.937,29.166z"/>
			<path style="fill:#FFFFFF;" d="M14.119,37.06c1.144,0.292,2.375,0.44,3.652,0.44c1.148,0,2.242-0.151,3.254-0.444
				c3.154-0.916,5.193-3.242,5.193-5.929c0-2.577-0.826-4.119-3.045-5.692c-0.951-0.675-1.817-1.663-1.832-1.969
				c0-0.554,0.049-0.818,1.289-1.787c1.603-1.256,2.486-2.91,2.486-4.657c0-1.583-0.482-2.99-1.307-3.978h0.639
				c0.133,0,0.262-0.041,0.367-0.117l1.779-1.291c0.221-0.159,0.314-0.442,0.229-0.701C26.74,10.676,26.5,10.5,26.228,10.5h-7.957
				c-0.871,0-1.756,0.153-2.623,0.452c-2.9,1.002-4.928,3.477-4.928,6.021c0,3.599,2.783,6.328,6.506,6.414
				c-0.072,0.286-0.109,0.567-0.109,0.843c0,0.554,0.141,1.08,0.43,1.587c-0.035,0.002-0.066,0.002-0.104,0.002
				c-3.547,0-6.75,1.744-7.965,4.34C9.16,30.833,9,31.516,9,32.189c0,0.656,0.168,1.286,0.496,1.879
				C10.262,35.437,11.902,36.5,14.119,37.06z M14.828,16.875c-0.172-1.319,0.103-2.503,0.76-3.252c0.424-0.485,0.978-0.74,1.6-0.74
				l0.072,0.002c1.758,0.051,3.439,2.014,3.75,4.375c0.174,1.323-0.119,2.565-0.783,3.325c-0.424,0.485-0.971,0.74-1.619,0.74
				c0,0,0,0-0.002,0h-0.027C16.856,21.274,15.137,19.233,14.828,16.875z M18.209,27.814l0.072,0.002
				c0.59,0.006,1.164,0.094,1.707,0.26c0.186,0.127,0.365,0.25,0.539,0.368c1.254,0.857,2.082,1.423,2.314,2.331
				c0.053,0.227,0.08,0.456,0.08,0.677c0,2.334-1.738,3.518-5.166,3.518c-2.6,0-4.633-1.597-4.633-3.636
				C13.123,29.459,15.5,27.814,18.209,27.814z"/>
		</g>
	</g>
</g>
<g id="Layer_1">
</g>
</svg>
