<?xml version="1.0" encoding="iso-8859-1"?>
<!-- Generator: Adobe Illustrator 18.0.0, SVG Export Plug-In . SVG Version: 6.00 Build 0)  -->
<!DOCTYPE svg PUBLIC "-//W3C//DTD SVG 1.1//EN" "http://www.w3.org/Graphics/SVG/1.1/DTD/svg11.dtd">
<svg version="1.1" xmlns="http://www.w3.org/2000/svg" xmlns:xlink="http://www.w3.org/1999/xlink" x="0px" y="0px"
	 viewBox="0 0 48 48" style="enable-background:new 0 0 48 48;" xml:space="preserve">
<g id="Layer_543">
	<g>
		<circle style="fill:#517FA4;" cx="24" cy="24" r="24"/>
		<g>
			<path style="fill:#FFFFFF;" d="M33.201,9H14.797C11.6,9,9,11.6,9,14.797v6.125v12.281C9,36.4,11.6,39,14.797,39h18.404
				C36.398,39,39,36.4,39,33.203V20.922v-6.125C39,11.6,36.398,9,33.201,9z M34.865,12.459l0.662-0.004v0.662v4.422l-5.066,0.017
				l-0.018-5.084L34.865,12.459z M19.719,20.922c0.961-1.33,2.519-2.201,4.281-2.201s3.32,0.871,4.281,2.201
				c0.625,0.867,1,1.93,1,3.078c0,2.91-2.371,5.279-5.281,5.279c-2.912,0-5.281-2.369-5.281-5.279
				C18.719,22.852,19.094,21.789,19.719,20.922z M36.078,33.203c0,1.586-1.291,2.875-2.877,2.875H14.797
				c-1.586,0-2.875-1.289-2.875-2.875V20.922H16.4c-0.387,0.951-0.603,1.99-0.603,3.078c0,4.523,3.68,8.203,8.203,8.203
				c4.523,0,8.203-3.68,8.203-8.203c0-1.088-0.219-2.127-0.605-3.078h4.48V33.203z"/>
		</g>
		<circle style="fill:#517FA4;" cx="24" cy="24" r="24"/>
		<g>
			<path style="fill:#FFFFFF;" d="M33.201,9H14.797C11.6,9,9,11.6,9,14.797v6.125v12.281C9,36.4,11.6,39,14.797,39h18.404
				C36.398,39,39,36.4,39,33.203V20.922v-6.125C39,11.6,36.398,9,33.201,9z M34.865,12.459l0.662-0.004v0.662v4.422l-5.066,0.017
				l-0.018-5.084L34.865,12.459z M19.719,20.922c0.961-1.33,2.519-2.201,4.281-2.201s3.32,0.871,4.281,2.201
				c0.625,0.867,1,1.93,1,3.078c0,2.91-2.371,5.279-5.281,5.279c-2.912,0-5.281-2.369-5.281-5.279
				C18.719,22.852,19.094,21.789,19.719,20.922z M36.078,33.203c0,1.586-1.291,2.875-2.877,2.875H14.797
				c-1.586,0-2.875-1.289-2.875-2.875V20.922H16.4c-0.387,0.951-0.603,1.99-0.603,3.078c0,4.523,3.68,8.203,8.203,8.203
				c4.523,0,8.203-3.68,8.203-8.203c0-1.088-0.219-2.127-0.605-3.078h4.48V33.203z"/>
		</g>
		<circle style="fill:#517FA4;" cx="24" cy="24" r="24"/>
		<g>
			<path style="fill:#FFFFFF;" d="M33.201,9H14.797C11.6,9,9,11.6,9,14.797v6.125v12.281C9,36.4,11.6,39,14.797,39h18.404
				C36.398,39,39,36.4,39,33.203V20.922v-6.125C39,11.6,36.398,9,33.201,9z M34.865,12.459l0.662-0.004v0.662v4.422l-5.066,0.017
				l-0.018-5.084L34.865,12.459z M19.719,20.922c0.961-1.33,2.519-2.201,4.281-2.201s3.32,0.871,4.281,2.201
				c0.625,0.867,1,1.93,1,3.078c0,2.91-2.371,5.279-5.281,5.279c-2.912,0-5.281-2.369-5.281-5.279
				C18.719,22.852,19.094,21.789,19.719,20.922z M36.078,33.203c0,1.586-1.291,2.875-2.877,2.875H14.797
				c-1.586,0-2.875-1.289-2.875-2.875V20.922H16.4c-0.387,0.951-0.603,1.99-0.603,3.078c0,4.523,3.68,8.203,8.203,8.203
				c4.523,0,8.203-3.68,8.203-8.203c0-1.088-0.219-2.127-0.605-3.078h4.48V33.203z"/>
		</g>
	</g>
</g>
<g id="Layer_1">
</g>
</svg>
