<?xml version="1.0" encoding="iso-8859-1"?>
<!-- Generator: Adobe Illustrator 18.0.0, SVG Export Plug-In . SVG Version: 6.00 Build 0)  -->
<!DOCTYPE svg PUBLIC "-//W3C//DTD SVG 1.1//EN" "http://www.w3.org/Graphics/SVG/1.1/DTD/svg11.dtd">
<svg version="1.1" xmlns="http://www.w3.org/2000/svg" xmlns:xlink="http://www.w3.org/1999/xlink" x="0px" y="0px"
	 viewBox="0 0 48 48" style="enable-background:new 0 0 48 48;" xml:space="preserve">
<g id="Layer_526">
	<g>
		<circle style="fill:#00605E;" cx="24" cy="23.998" r="24"/>
		<g>
			<polygon style="fill:#FFFFFF;" points="31.074,9 20.784,27.24 27.415,39 34.342,39 27.71,27.24 38,9 			"/>
			<polygon style="fill:#FFFFFF;" points="16.528,29.929 21.674,21.36 17.814,14.481 11.286,14.481 15.144,21.36 10,29.929 			"/>
		</g>
		<circle style="fill:#00605E;" cx="24" cy="23.998" r="24"/>
		<g>
			<polygon style="fill:#FFFFFF;" points="31.074,9 20.784,27.24 27.415,39 34.342,39 27.71,27.24 38,9 			"/>
			<polygon style="fill:#FFFFFF;" points="16.528,29.929 21.674,21.36 17.814,14.481 11.286,14.481 15.144,21.36 10,29.929 			"/>
		</g>
		<circle style="fill:#00605E;" cx="24" cy="23.998" r="24"/>
		<g>
			<polygon style="fill:#FFFFFF;" points="31.074,9 20.784,27.24 27.415,39 34.342,39 27.71,27.24 38,9 			"/>
			<polygon style="fill:#FFFFFF;" points="16.528,29.929 21.674,21.36 17.814,14.481 11.286,14.481 15.144,21.36 10,29.929 			"/>
		</g>
	</g>
</g>
<g id="Layer_1">
</g>
</svg>
